<svg width="18" height="18" viewBox="0 0 18 18" fill="none" xmlns="http://www.w3.org/2000/svg">
<path d="M0.316406 0H7.06641C8.80078 0 10.1016 0.4375 10.9688 1.3125C11.8437 2.17969 12.2812 3.58594 12.2812 5.53125V12.3164H10.8164V5.37891C10.8164 4.01953 10.5313 3.01172 9.96094 2.35547C9.39063 1.69141 8.46484 1.35938 7.18359 1.35938H1.78125V18H0.316406V0ZM5.54297 18V5.68359H7.01953V16.6406H12.4219C13.6953 16.6406 14.6172 16.3125 15.1875 15.6563C15.7578 14.9922 16.043 13.9805 16.043 12.6211V0.152345H17.5195V12.4688C17.5195 14.4141 17.082 15.8242 16.207 16.6992C15.3398 17.5664 14.0352 18 12.293 18H5.54297Z" fill="#1E1E1E"/>
</svg>
