<svg width="21" height="21" viewBox="0 0 21 21" fill="none" xmlns="http://www.w3.org/2000/svg">
<path d="M0 14.8032C1.21509 14.335 2.23877 14.6409 3.66064 15.0681C4.03149 15.1792 4.43481 15.3005 4.79883 15.3962C5.12353 15.4817 5.62256 15.2971 6.14551 15.104C6.79834 14.863 7.47851 14.6135 8.2937 14.634C8.90893 14.6494 9.42676 14.9314 9.94971 15.2168C10.2778 15.3962 10.6111 15.5774 10.7957 15.5842C11.0076 15.5911 11.322 15.4065 11.6365 15.2219C12.1492 14.9194 12.6619 14.617 13.3745 14.593C14.1401 14.5674 14.7332 14.8306 15.321 15.092C15.656 15.2407 15.9893 15.3894 16.2678 15.4099C16.531 15.4304 16.8831 15.2048 17.2249 14.9878C17.6999 14.6836 18.1665 14.3862 18.78 14.3179C19.5098 14.2376 20.3062 14.5811 20.9829 14.8716L21 14.8801C21 15.5723 21 16.2661 21 16.9583C20.8547 16.9155 20.7043 16.8574 20.5488 16.7942C20.4412 16.7498 20.3301 16.7019 20.2173 16.6541C19.7541 16.4558 19.209 16.22 18.9919 16.2439C18.8176 16.2627 18.5425 16.4387 18.2622 16.6182C18.1597 16.6831 18.0554 16.7498 17.9512 16.8147C17.4316 17.1309 16.8677 17.4009 16.1243 17.3445C15.5193 17.2983 15.0271 17.0796 14.5332 16.8591L14.4905 16.8403C14.1213 16.6763 13.7505 16.5173 13.436 16.5276C13.2429 16.5344 12.9661 16.6899 12.6858 16.854L12.6208 16.8916C12.0654 17.2197 11.5083 17.5479 10.7273 17.5188C10.0898 17.4949 9.55322 17.2044 9.02515 16.9155L8.9585 16.8796C8.66455 16.719 8.38257 16.572 8.24756 16.5686C7.83398 16.5584 7.35718 16.7241 6.89404 16.895L6.81372 16.9241C6.00366 17.2232 5.2312 17.5068 4.31519 17.2676C3.823 17.1394 3.45044 17.0266 3.10864 16.9241L3.09839 16.9207C1.85937 16.5481 1.05103 16.3088 0.0820312 16.9429C0.0563965 16.96 0.0290527 16.9771 0.00170898 16.9959V16.9429V14.8032H0ZM15.0237 6.39844L17.4436 6.03101C18.9492 5.80543 18.4963 3.09498 16.5669 3.52906L11.0793 4.43482C10.4846 4.53223 9.46435 4.60743 9.02002 5.00391C8.76538 5.23121 8.65942 5.54737 8.71753 5.94215C8.79956 6.50098 9.26611 7.20167 9.54639 7.70924L10.2249 8.92945C10.7187 9.81641 10.9836 9.90186 10.0693 10.3923L3.83667 13.7351L4.29297 13.8701L5.66186 13.8906C5.81738 13.8394 5.97974 13.7795 6.14551 13.718C6.79834 13.4771 7.47851 13.2275 8.2937 13.2481C8.90893 13.2634 9.42676 13.5454 9.94971 13.8308L10.1855 13.9573L11.3921 13.9761C11.4724 13.9316 11.5544 13.8838 11.6348 13.8359C12.1475 13.5335 12.6602 13.231 13.3728 13.207C14.1384 13.1814 14.7314 13.4446 15.3193 13.7061C15.6543 13.8547 15.9875 14.0034 16.2661 14.0239C16.3293 14.0291 16.3977 14.0188 16.4695 14L13.2942 8.35352C13.0242 7.8733 12.5388 7.26661 12.6089 6.90089C12.6328 6.77784 12.7969 6.72828 12.9968 6.69752C13.6736 6.6001 14.3469 6.50098 15.0237 6.39844ZM17.6384 7.65626C18.9663 7.65626 20.043 8.73292 20.043 10.0608C20.043 11.3887 18.9663 12.4653 17.6384 12.4653C16.3105 12.4653 15.2339 11.3887 15.2339 10.0608C15.2356 8.73121 16.3105 7.65626 17.6384 7.65626Z" fill="#1E1E1E"/>
</svg>
