<svg width="19" height="19" viewBox="0 0 19 19" fill="none" xmlns="http://www.w3.org/2000/svg">
<path d="M9.50028 16.0336C8.99582 16.0336 8.49833 15.9489 8.02518 15.7924V19H10.9754V15.7923C10.5022 15.9489 10.0047 16.0336 9.50028 16.0336Z" fill="black"/>
<path d="M15.5781 7.36391C15.712 7.00269 15.7892 6.6136 15.7892 6.20539C15.7892 4.63867 14.7078 3.32708 13.2507 2.96875C12.8488 1.26751 11.3244 0 9.50028 0C7.67613 0 6.15175 1.26751 5.74989 2.96875C4.29335 3.32708 3.21139 4.63867 3.21139 6.20539C3.21139 6.6136 3.28795 7.00209 3.42188 7.36391C2.4669 8.0655 1.84473 9.19389 1.84473 10.4707C1.84473 12.601 3.57091 14.3277 5.7018 14.3277C6.24163 14.3277 6.75537 14.2164 7.22154 14.0158C7.69409 14.4171 8.27337 14.6942 8.91002 14.8021V12.9478L6.23699 10.2735C6.00621 10.0434 6.00621 9.66992 6.23699 9.43974C6.46718 9.20895 6.84061 9.20895 7.0708 9.43974L8.91005 11.2784V9.25304L7.07663 7.41961C6.90559 7.24798 6.90559 6.97081 7.07663 6.79977C7.24767 6.62874 7.52543 6.62874 7.69591 6.79977L8.91009 8.01336V5.78969C8.91009 5.46384 9.1745 5.19999 9.50035 5.19999C9.82621 5.19999 10.0906 5.4638 10.0906 5.78969V8.01336L11.3048 6.79977C11.4753 6.62874 11.753 6.62874 11.9241 6.79977C12.0952 6.97081 12.0951 7.24798 11.9241 7.41961L10.0907 9.25304V11.2784L11.9299 9.43974C12.1601 9.20895 12.5335 9.20895 12.7637 9.43974C12.9945 9.66992 12.9945 10.0434 12.7637 10.2735L10.0907 12.9478V14.8021C10.7273 14.6942 11.3066 14.4171 11.7792 14.0164C12.2454 14.2165 12.7585 14.3278 13.2983 14.3278C15.4292 14.3278 17.156 12.601 17.156 10.4707C17.1558 9.19385 16.5337 8.0655 15.5781 7.36391Z" fill="black"/>
</svg>
