<svg width="19" height="19" viewBox="0 0 19 19" fill="none" xmlns="http://www.w3.org/2000/svg">
<path d="M15.833 9.5V3.16667C15.833 2.9567 15.7496 2.75534 15.6011 2.60687C15.4527 2.45841 15.2513 2.375 15.0413 2.375C14.8314 2.375 14.63 2.45841 14.4815 2.60687C14.3331 2.75534 14.2497 2.9567 14.2497 3.16667V4.75H4.74967V3.16667C4.74967 2.9567 4.66627 2.75534 4.5178 2.60687C4.36933 2.45841 4.16797 2.375 3.95801 2.375C3.74804 2.375 3.54668 2.45841 3.39822 2.60687C3.24975 2.75534 3.16634 2.9567 3.16634 3.16667V9.5C2.74642 9.5 2.34369 9.66682 2.04676 9.96375C1.74982 10.2607 1.58301 10.6634 1.58301 11.0833V15.8333C1.58301 16.0433 1.66642 16.2447 1.81488 16.3931C1.96335 16.5416 2.16471 16.625 2.37467 16.625C2.58464 16.625 2.786 16.5416 2.93447 16.3931C3.08293 16.2447 3.16634 16.0433 3.16634 15.8333V14.25H15.833V15.8333C15.833 16.0433 15.9164 16.2447 16.0649 16.3931C16.2133 16.5416 16.4147 16.625 16.6247 16.625C16.8346 16.625 17.036 16.5416 17.1845 16.3931C17.3329 16.2447 17.4163 16.0433 17.4163 15.8333V11.0833C17.4163 10.6634 17.2495 10.2607 16.9526 9.96375C16.6557 9.66682 16.2529 9.5 15.833 9.5ZM11.083 7.91667H13.458C13.668 7.91667 13.8693 8.00007 14.0178 8.14854C14.1663 8.29701 14.2497 8.49837 14.2497 8.70833V9.5H10.2913V8.70833C10.2913 8.49837 10.3747 8.29701 10.5232 8.14854C10.6717 8.00007 10.873 7.91667 11.083 7.91667ZM4.74967 8.70833C4.74967 8.49837 4.83308 8.29701 4.98155 8.14854C5.13001 8.00007 5.33138 7.91667 5.54134 7.91667H7.91634C8.1263 7.91667 8.32767 8.00007 8.47613 8.14854C8.6246 8.29701 8.70801 8.49837 8.70801 8.70833V9.5H4.74967V8.70833Z" fill="black"/>
</svg>
