<svg width="21" height="21" viewBox="0 0 21 21" fill="none" xmlns="http://www.w3.org/2000/svg">
<g clip-path="url(#clip0_1_121)">
<path d="M4.2 0.839996C3.969 0.839996 3.78 1.029 3.78 1.26V2.72589L1.01637 4.69957C0.907165 4.77517 0.839998 4.9056 0.839998 5.04V6.72C0.839998 6.951 1.029 7.14 1.26 7.14H10.5C10.731 7.14 10.92 6.951 10.92 6.72V5.04C10.92 4.9056 10.8528 4.77517 10.7436 4.69957L7.98 2.72589V1.26C7.98 1.029 7.791 0.839996 7.56 0.839996H4.2ZM2.93508 9.24C2.7045 9.24 2.5159 9.429 2.5159 9.66V10.08H0.839178C0.608598 10.08 0.419998 10.269 0.419998 10.5V19.74C0.419998 19.971 0.608598 20.16 0.839178 20.16H10.8396C11.1038 20.16 11.317 19.9455 11.317 19.6809V10.5344C11.317 10.2833 11.1141 10.08 10.8634 10.08H9.22113V9.7166C9.22113 9.45326 9.00827 9.24 8.74535 9.24H2.93508ZM12.6361 10.08C12.608 10.0792 12.4284 10.0779 12.2957 10.2211C12.1928 10.332 12.1821 10.4622 12.18 10.5V13.44H20.58V10.5C20.58 10.269 20.3914 10.08 20.1608 10.08H19.2806H15.5088H12.6361ZM2.5159 11.76H9.22195C9.45253 11.76 9.64113 11.949 9.64113 12.18V18.06C9.64113 18.291 9.45253 18.48 9.22195 18.48H2.5159C2.28532 18.48 2.09672 18.291 2.09672 18.06V12.18C2.09672 11.949 2.28532 11.76 2.5159 11.76ZM13.8321 11.76H18.8614C19.092 11.76 19.2806 11.949 19.2806 12.18C19.2806 12.411 19.092 12.6 18.8614 12.6H13.8321C13.6015 12.6 13.4129 12.411 13.4129 12.18C13.4129 11.949 13.6015 11.76 13.8321 11.76ZM2.93508 12.6V17.64H8.80277V12.6H2.93508ZM12.18 14.28V19.74C12.1808 19.7749 12.1878 19.9092 12.2924 20.023C12.4217 20.1633 12.5969 20.1608 12.6238 20.16H20.1608C20.3914 20.16 20.58 19.971 20.58 19.74V14.28H12.18ZM13.8321 15.54C14.0627 15.54 14.2513 15.729 14.2513 15.96V18.06C14.2513 18.291 14.0627 18.48 13.8321 18.48C13.6015 18.48 13.4129 18.291 13.4129 18.06V15.96C13.4129 15.729 13.6015 15.54 13.8321 15.54Z" fill="black"/>
</g>
<defs>
<clipPath id="clip0_1_121">
<rect width="21" height="21" fill="white"/>
</clipPath>
</defs>
</svg>
