<svg width="17" height="17" viewBox="0 0 17 17" fill="none" xmlns="http://www.w3.org/2000/svg">
<g clip-path="url(#clip0_1_123)">
<path d="M8.49973 0.000305176C3.80594 0.000305176 0 3.80598 0 8.50004C0 13.1941 3.80594 16.9998 8.49973 16.9998C13.1946 16.9998 17 13.1941 17 8.50004C17 3.80595 13.1946 0.000305176 8.49973 0.000305176ZM9.99221 12.4023C9.6484 12.7839 9.45134 13.0107 9.08022 13.3655C8.51849 13.9026 7.88066 14.0456 7.38477 13.5154C6.672 12.7531 7.41957 10.434 7.4378 10.3462C7.57167 9.72982 7.83889 8.49788 7.83889 8.49788C7.83889 8.49788 7.26159 8.8513 6.91887 8.97664C6.66609 9.06901 6.38015 8.94772 6.30946 8.70324C6.24358 8.47673 6.29604 8.33266 6.43477 8.1779C6.77855 7.7966 6.97561 7.56982 7.34676 7.21505C7.90902 6.67765 8.54632 6.53495 9.04221 7.06483C9.75498 7.82715 9.22907 9.08133 9.04433 9.97001C9.02614 10.0581 8.58805 12.0826 8.58805 12.0826C8.58805 12.0826 9.16536 11.7292 9.50808 11.6036C9.76135 11.5115 10.0473 11.6331 10.118 11.8773C10.1839 12.1038 10.1309 12.2478 9.99221 12.4023ZM9.07006 5.84787C8.27697 5.91747 7.57812 5.3311 7.50849 4.53745C7.43943 3.74462 8.02579 3.0455 8.81892 2.97643C9.61147 2.90681 10.3109 3.49374 10.38 4.28656C10.4496 5.07942 9.86262 5.77881 9.07006 5.84787Z" fill="black"/>
</g>
<defs>
<clipPath id="clip0_1_123">
<rect width="17" height="17" fill="white"/>
</clipPath>
</defs>
</svg>
