<svg width="31" height="21" viewBox="0 0 31 21" fill="none" xmlns="http://www.w3.org/2000/svg">
<path fill-rule="evenodd" clip-rule="evenodd" d="M0.625 10.5C0.625 9.94772 1.07272 9.5 1.625 9.5H29.375C29.9273 9.5 30.375 9.94772 30.375 10.5C30.375 11.0523 29.9273 11.5 29.375 11.5H1.625C1.07272 11.5 0.625 11.0523 0.625 10.5Z" fill="#1E1E1E"/>
<path fill-rule="evenodd" clip-rule="evenodd" d="M0.625 1.25C0.625 0.697715 1.07272 0.25 1.625 0.25H23.2083C23.7606 0.25 24.2083 0.697715 24.2083 1.25C24.2083 1.80228 23.7606 2.25 23.2083 2.25H1.625C1.07272 2.25 0.625 1.80228 0.625 1.25Z" fill="#1E1E1E"/>
<path fill-rule="evenodd" clip-rule="evenodd" d="M0.625 19.75C0.625 19.1977 1.07272 18.75 1.625 18.75H15.5C16.0523 18.75 16.5 19.1977 16.5 19.75C16.5 20.3023 16.0523 20.75 15.5 20.75H1.625C1.07272 20.75 0.625 20.3023 0.625 19.75Z" fill="#1E1E1E"/>
</svg>
