<svg width="18" height="18" viewBox="0 0 18 18" fill="none" xmlns="http://www.w3.org/2000/svg">
<path fill-rule="evenodd" clip-rule="evenodd" d="M9 1.25C7.98226 1.25 6.97448 1.45046 6.0342 1.83993C5.09393 2.22941 4.23958 2.80027 3.51992 3.51992C2.80027 4.23958 2.22941 5.09393 1.83993 6.0342C1.45046 6.97448 1.25 7.98225 1.25 9C1.25 10.0177 1.45046 11.0255 1.83993 11.9658C2.22941 12.9061 2.80027 13.7604 3.51992 14.4801C4.23958 15.1997 5.09393 15.7706 6.0342 16.1601C6.97448 16.5495 7.98225 16.75 9 16.75C10.0177 16.75 11.0255 16.5495 11.9658 16.1601C12.9061 15.7706 13.7604 15.1997 14.4801 14.4801C15.1997 13.7604 15.7706 12.9061 16.1601 11.9658C16.5495 11.0255 16.75 10.0177 16.75 9C16.75 7.98226 16.5495 6.97448 16.1601 6.0342C15.7706 5.09393 15.1997 4.23958 14.4801 3.51992C13.7604 2.80027 12.9061 2.22941 11.9658 1.83993C11.0255 1.45046 10.0177 1.25 9 1.25ZM5.65152 0.916054C6.71312 0.476325 7.85094 0.25 9 0.25C10.1491 0.25 11.2869 0.476326 12.3485 0.916055C13.4101 1.35578 14.3747 2.0003 15.1872 2.81282C15.9997 3.62533 16.6442 4.58992 17.0839 5.65152C17.5237 6.71312 17.75 7.85094 17.75 9C17.75 10.1491 17.5237 11.2869 17.0839 12.3485C16.6442 13.4101 15.9997 14.3747 15.1872 15.1872C14.3747 15.9997 13.4101 16.6442 12.3485 17.0839C11.2869 17.5237 10.1491 17.75 9 17.75C7.85093 17.75 6.71312 17.5237 5.65152 17.0839C4.58992 16.6442 3.62533 15.9997 2.81282 15.1872C2.0003 14.3747 1.35578 13.4101 0.916054 12.3485C0.476325 11.2869 0.25 10.1491 0.25 9C0.25 7.85093 0.476326 6.71312 0.916055 5.65152C1.35578 4.58992 2.0003 3.62533 2.81282 2.81281C3.62533 2.0003 4.58992 1.35578 5.65152 0.916054Z" fill="#FF774B"/>
<path fill-rule="evenodd" clip-rule="evenodd" d="M5.89645 5.89645C6.09171 5.70118 6.40829 5.70118 6.60355 5.89645L12.1036 11.3964C12.2988 11.5917 12.2988 11.9083 12.1036 12.1036C11.9083 12.2988 11.5917 12.2988 11.3964 12.1036L5.89645 6.60355C5.70118 6.40829 5.70118 6.09171 5.89645 5.89645Z" fill="#FF774B"/>
<path fill-rule="evenodd" clip-rule="evenodd" d="M12.1036 5.89645C11.9083 5.70118 11.5917 5.70118 11.3964 5.89645L5.89645 11.3964C5.70118 11.5917 5.70118 11.9083 5.89645 12.1036C6.09171 12.2988 6.40829 12.2988 6.60355 12.1036L12.1036 6.60355C12.2988 6.40829 12.2988 6.09171 12.1036 5.89645Z" fill="#FF774B"/>
</svg>
