<svg width="18" height="18" viewBox="0 0 18 18" fill="none" xmlns="http://www.w3.org/2000/svg">
<path fill-rule="evenodd" clip-rule="evenodd" d="M9.00039 1.35002C4.77541 1.35002 1.35039 4.77505 1.35039 9.00002C1.35039 13.225 4.77541 16.65 9.00039 16.65C13.2254 16.65 16.6504 13.225 16.6504 9.00002C16.6504 4.77505 13.2254 1.35002 9.00039 1.35002ZM0.150391 9.00002C0.150391 4.1123 4.11267 0.150024 9.00039 0.150024C13.8881 0.150024 17.8504 4.1123 17.8504 9.00002C17.8504 13.8877 13.8881 17.85 9.00039 17.85C4.11267 17.85 0.150391 13.8877 0.150391 9.00002Z" fill="#00AF27"/>
<path fill-rule="evenodd" clip-rule="evenodd" d="M13.127 6.63419L8.12301 12.6389L4.90842 9.42434L5.75695 8.57581L8.04237 10.8612L12.2051 5.86597L13.127 6.63419Z" fill="#00AF27"/>
</svg>
