<svg width="18" height="18" viewBox="0 0 18 18" fill="none" xmlns="http://www.w3.org/2000/svg">
<path fill-rule="evenodd" clip-rule="evenodd" d="M9.00002 1.35002C4.77505 1.35002 1.35002 4.77505 1.35002 9.00002C1.35002 13.225 4.77505 16.65 9.00002 16.65C13.225 16.65 16.65 13.225 16.65 9.00002C16.65 4.77505 13.225 1.35002 9.00002 1.35002ZM0.150024 9.00002C0.150024 4.1123 4.1123 0.150024 9.00002 0.150024C13.8877 0.150024 17.85 4.1123 17.85 9.00002C17.85 13.8877 13.8877 17.85 9.00002 17.85C4.1123 17.85 0.150024 13.8877 0.150024 9.00002Z" fill="#00AF27"/>
<path fill-rule="evenodd" clip-rule="evenodd" d="M13.128 6.63413L8.12401 12.6389L4.90942 9.42429L5.75795 8.57576L8.04337 10.8612L12.2061 5.86591L13.128 6.63413Z" fill="#00AF27"/>
</svg>
