<svg width="21" height="21" viewBox="0 0 21 21" fill="none" xmlns="http://www.w3.org/2000/svg">
<path fill-rule="evenodd" clip-rule="evenodd" d="M1.29289 19.4416C0.902367 19.0511 0.902367 18.4179 1.29289 18.0274L18.0273 1.29295C18.4179 0.902422 19.051 0.902422 19.4415 1.29295C19.8321 1.68347 19.8321 2.31664 19.4415 2.70716L2.70711 19.4416C2.31658 19.8321 1.68342 19.8321 1.29289 19.4416Z" fill="#1E1E1E"/>
<path fill-rule="evenodd" clip-rule="evenodd" d="M1.55852 1.29289C1.94904 0.902367 2.58221 0.902367 2.97273 1.29289L19.7072 18.0273C20.0977 18.4179 20.0977 19.051 19.7072 19.4415C19.3167 19.8321 18.6835 19.8321 18.293 19.4415L1.55852 2.70711C1.16799 2.31658 1.16799 1.68342 1.55852 1.29289Z" fill="#1E1E1E"/>
</svg>
