<svg width="33" height="33" viewBox="0 0 33 33" fill="none" xmlns="http://www.w3.org/2000/svg">
<path fill-rule="evenodd" clip-rule="evenodd" d="M32.4571 0.542893C32.8476 0.933417 32.8476 1.56658 32.4571 1.95711L1.95711 32.4571C1.56658 32.8476 0.933417 32.8476 0.542893 32.4571C0.152369 32.0666 0.152369 31.4334 0.542893 31.0429L31.0429 0.542893C31.4334 0.152369 32.0666 0.152369 32.4571 0.542893Z" fill="#1E1E1E"/>
<path fill-rule="evenodd" clip-rule="evenodd" d="M0.542892 0.542893C0.152369 0.933417 0.152369 1.56658 0.542892 1.95711L31.0429 32.4571C31.4334 32.8476 32.0666 32.8476 32.4571 32.4571C32.8476 32.0666 32.8476 31.4334 32.4571 31.0429L1.95711 0.542893C1.56658 0.152369 0.933418 0.152369 0.542892 0.542893Z" fill="#1E1E1E"/>
</svg>
