<svg width="20" height="20" viewBox="0 0 20 20" fill="none" xmlns="http://www.w3.org/2000/svg">
<path fill-rule="evenodd" clip-rule="evenodd" d="M8.96131 0.5H11.0387C12.8915 0.499993 14.3332 0.499987 15.4557 0.650905C16.6004 0.804806 17.4878 1.12385 18.182 1.81802C18.8762 2.51219 19.1952 3.39959 19.3491 4.54429C19.5 5.6668 19.5 7.10845 19.5 8.96129V11.0387C19.5 12.8915 19.5 14.3332 19.3491 15.4557C19.1952 16.6004 18.8762 17.4878 18.182 18.182C17.4878 18.8762 16.6004 19.1952 15.4557 19.3491C14.3332 19.5 12.8915 19.5 11.0387 19.5H8.96129C7.10845 19.5 5.6668 19.5 4.54429 19.3491C3.39959 19.1952 2.51219 18.8762 1.81802 18.182C1.12385 17.4878 0.804806 16.6004 0.650905 15.4557C0.499987 14.3332 0.499993 12.8915 0.5 11.0387V8.96131C0.499993 7.10846 0.499987 5.6668 0.650905 4.54429C0.804806 3.39959 1.12385 2.51219 1.81802 1.81802C2.51219 1.12385 3.39959 0.804806 4.54429 0.650905C5.6668 0.499987 7.10846 0.499993 8.96131 0.5ZM4.67754 1.64199C3.64373 1.78098 3.00253 2.04772 2.52513 2.52513C2.04772 3.00253 1.78098 3.64373 1.64199 4.67754C1.50106 5.72573 1.5 7.10025 1.5 9V11C1.5 12.8998 1.50106 14.2743 1.64199 15.3225C1.78098 16.3563 2.04772 16.9975 2.52513 17.4749C3.00253 17.9523 3.64373 18.219 4.67754 18.358C5.72573 18.4989 7.10025 18.5 9 18.5H11C12.8998 18.5 14.2743 18.4989 15.3225 18.358C16.3563 18.219 16.9975 17.9523 17.4749 17.4749C17.9523 16.9975 18.219 16.3563 18.358 15.3225C18.4989 14.2743 18.5 12.8998 18.5 11V9C18.5 7.10025 18.4989 5.72573 18.358 4.67754C18.219 3.64373 17.9523 3.00253 17.4749 2.52513C16.9975 2.04772 16.3563 1.78098 15.3225 1.64199C14.2743 1.50106 12.8998 1.5 11 1.5H9C7.10025 1.5 5.72573 1.50106 4.67754 1.64199Z" fill="#222222"/>
<path fill-rule="evenodd" clip-rule="evenodd" d="M16.9976 12.2904L16.6544 11.9471L16.6385 11.9313C16.238 11.5307 15.9149 11.2077 15.6314 10.9687C15.3394 10.7226 15.055 10.5353 14.7221 10.4349C14.2512 10.2928 13.7488 10.2928 13.2779 10.4349C12.945 10.5353 12.6606 10.7226 12.3686 10.9687C12.0851 11.2077 11.762 11.5307 11.3615 11.9313L11.3456 11.9471C11.0459 12.2469 10.8458 12.4462 10.6832 12.5807C10.5218 12.7142 10.452 12.7359 10.4237 12.7408C10.3029 12.762 10.1785 12.7381 10.0742 12.6735C10.0498 12.6584 9.99304 12.6123 9.89277 12.4285C9.7917 12.2432 9.67997 11.9838 9.51298 11.5942L9.45957 11.4696L9.44751 11.4414L9.44751 11.4414C9.08292 10.5907 8.79308 9.91441 8.51066 9.41255C8.2237 8.90262 7.90522 8.49837 7.44575 8.26803C7.03426 8.06175 6.57382 7.97308 6.11515 8.01179C5.603 8.055 5.15716 8.31206 4.70134 8.67894C4.25273 9.04002 3.73245 9.56031 3.07799 10.2148L3.07798 10.2148L3.05634 10.2364L3 10.2928V10.9999C3 11.2462 3.00007 11.4816 3.00044 11.7065L3.76344 10.9435C4.44443 10.2626 4.92686 9.78111 5.32835 9.45795C5.72756 9.13664 5.98255 9.02653 6.19924 9.00824C6.47444 8.98502 6.75071 9.03822 6.9976 9.16199C7.192 9.25945 7.38786 9.45638 7.63918 9.90298C7.89194 10.3521 8.16106 10.9783 8.54043 11.8635L8.59383 11.9881L8.60342 12.0105L8.60343 12.0105C8.75829 12.3719 8.88837 12.6754 9.01486 12.9073C9.14475 13.1455 9.30377 13.3727 9.54786 13.5238C9.86082 13.7175 10.2341 13.7894 10.5966 13.7258C10.8794 13.6761 11.1114 13.5242 11.3204 13.3513C11.524 13.183 11.7575 12.9495 12.0355 12.6714L12.0527 12.6542C12.4728 12.2341 12.766 11.9416 13.013 11.7334C13.2553 11.5292 13.4185 11.437 13.5667 11.3922C13.8493 11.307 14.1507 11.307 14.4333 11.3922C14.5815 11.437 14.7447 11.5292 14.987 11.7334C15.234 11.9416 15.5272 12.2341 15.9473 12.6542L16.9755 13.6825C16.9887 13.2721 16.9948 12.812 16.9976 12.2904Z" fill="#222222"/>
<path d="M16 5.5C16 6.32843 15.3284 7 14.5 7C13.6716 7 13 6.32843 13 5.5C13 4.67157 13.6716 4 14.5 4C15.3284 4 16 4.67157 16 5.5Z" fill="#222222"/>
</svg>
