<svg width="26" height="26" viewBox="0 0 26 26" fill="none" xmlns="http://www.w3.org/2000/svg">
<path fill-rule="evenodd" clip-rule="evenodd" d="M9.74935 12.0834C11.038 12.0834 12.0827 11.0387 12.0827 9.75008C12.0827 8.46142 11.038 7.41675 9.74935 7.41675C8.46068 7.41675 7.41602 8.46142 7.41602 9.75008C7.41602 11.0387 8.46068 12.0834 9.74935 12.0834ZM9.74935 14.0834C12.1426 14.0834 14.0827 12.1433 14.0827 9.75008C14.0827 7.35685 12.1426 5.41675 9.74935 5.41675C7.35612 5.41675 5.41602 7.35685 5.41602 9.75008C5.41602 12.1433 7.35612 14.0834 9.74935 14.0834Z" fill="#6F6969"/>
<path fill-rule="evenodd" clip-rule="evenodd" d="M15.791 9.75097C15.5039 9.58521 15.1627 9.54029 14.8425 9.62609C14.5223 9.7119 14.2492 9.92139 14.0835 10.2085C13.9177 10.4956 13.8728 10.8368 13.9586 11.157C14.0444 11.4772 14.2539 11.7503 14.541 11.916C14.8281 12.0818 15.1693 12.1267 15.4895 12.0409C15.8098 11.9551 16.0828 11.7456 16.2485 11.4585C16.4143 11.1714 16.4592 10.8302 16.3734 10.51C16.2876 10.1897 16.0781 9.91673 15.791 9.75097ZM14.3249 7.69425C15.1574 7.47116 16.0445 7.58794 16.791 8.01892C17.5375 8.4499 18.0822 9.15976 18.3053 9.99234C18.5284 10.8249 18.4116 11.712 17.9806 12.4585C17.5496 13.205 16.8398 13.7497 16.0072 13.9727C15.1746 14.1958 14.2875 14.079 13.541 13.6481C12.7945 13.2171 12.2499 12.5072 12.0268 11.6747C11.8037 10.8421 11.9205 9.95497 12.3514 9.2085C12.7824 8.46203 13.4923 7.91733 14.3249 7.69425Z" fill="#6F6969"/>
<path fill-rule="evenodd" clip-rule="evenodd" d="M14.5886 17.2958C15.2149 18.0381 15.5885 18.8668 15.8124 19.5833H18.1992C17.7727 18.4688 16.9214 17.25 15.1655 17.25C14.9586 17.25 14.7667 17.2661 14.5886 17.2958ZM12.1566 16.2234C12.9297 15.6362 13.9253 15.25 15.1655 15.25C18.3816 15.25 19.6995 17.7662 20.1741 19.1653C20.6293 20.5072 19.5161 21.5833 18.3661 21.5833H14.2186L14.057 20.7808C13.8664 19.8346 13.3878 18.5869 12.2333 17.8689L11 17.1019L12.1566 16.2234Z" fill="#6F6969"/>
<path fill-rule="evenodd" clip-rule="evenodd" d="M5.46501 20.6667H14.033C13.8866 20.0047 13.592 19.1927 13.0163 18.5353C12.4159 17.8497 11.441 17.25 9.74902 17.25C8.05704 17.25 7.08213 17.8497 6.48176 18.5353C5.90602 19.1927 5.61141 20.0047 5.46501 20.6667ZM4.97712 17.2177C5.97215 16.0814 7.50359 15.25 9.74902 15.25C11.9945 15.25 13.5259 16.0814 14.5209 17.2177C15.4832 18.3165 15.8745 19.6192 16.0382 20.4908C16.2757 21.7552 15.2315 22.6667 14.1657 22.6667H5.33236C4.26659 22.6667 3.22236 21.7552 3.45987 20.4908C3.62358 19.6192 4.01489 18.3165 4.97712 17.2177Z" fill="#6F6969"/>
<path fill-rule="evenodd" clip-rule="evenodd" d="M19 2C19.5523 2 20 2.44772 20 3V7C20 7.55228 19.5523 8 19 8C18.4477 8 18 7.55228 18 7V3C18 2.44772 18.4477 2 19 2Z" fill="#6F6969"/>
<path fill-rule="evenodd" clip-rule="evenodd" d="M22 5C22 5.55228 21.5523 6 21 6L17 6C16.4477 6 16 5.55228 16 5C16 4.44771 16.4477 4 17 4L21 4C21.5523 4 22 4.44772 22 5Z" fill="#6F6969"/>
</svg>
