<svg width="20" height="18" viewBox="0 0 20 18" fill="none" xmlns="http://www.w3.org/2000/svg">
<path fill-rule="evenodd" clip-rule="evenodd" d="M13.9202 11.7988C13.9725 11.5407 14 11.2736 14 11C14 8.79086 12.2091 7 10 7C9.72645 7 9.45931 7.02746 9.20119 7.07977L13.9202 11.7988ZM6.66676 8.78799C6.24547 9.42156 6 10.1821 6 11C6 13.2091 7.79086 15 10 15C10.8179 15 11.5784 14.7545 12.212 14.3332L10.7381 12.8594C10.5098 12.9501 10.2607 13 10 13C8.89543 13 8 12.1046 8 11C8 10.7393 8.04988 10.4902 8.14063 10.2619L6.66676 8.78799Z" fill="#6F6969"/>
<path fill-rule="evenodd" clip-rule="evenodd" d="M14.5191 16.6404L13.0498 15.1711C12.0775 15.6805 11.0475 16 9.99977 16C8.47397 16 6.98592 15.3224 5.6589 14.3677C4.33978 13.4186 3.26384 12.2558 2.58362 11.43C2.48385 11.3088 2.40934 11.2182 2.34761 11.1385C2.29874 11.0754 2.26762 11.0315 2.24731 11C2.26762 10.9685 2.29874 10.9246 2.34761 10.8615C2.40934 10.7818 2.48385 10.6912 2.58362 10.57C3.24906 9.76214 4.29318 8.63178 5.57321 7.69453L4.14448 6.2658C2.79626 7.29608 1.72225 8.47002 1.03985 9.29852C1.01626 9.32716 0.991679 9.35661 0.966378 9.38692L0.966361 9.38694C0.652937 9.76236 0.229492 10.2696 0.229492 11C0.229492 11.7304 0.652936 12.2376 0.96636 12.6131L0.966579 12.6133C0.991809 12.6435 1.01633 12.6729 1.03985 12.7015C1.77972 13.5998 2.97993 14.9041 4.49087 15.9912C5.99391 17.0725 7.88983 18 9.99977 18C11.6698 18 13.2058 17.4189 14.5191 16.6404ZM6.80675 4.68543C7.7905 4.26868 8.86413 4 9.99977 4C12.1097 4 14.0056 4.92747 15.5087 6.00885C17.0196 7.0959 18.2198 8.40025 18.9597 9.29853C18.9833 9.32715 19.0078 9.35659 19.0331 9.38689L19.0332 9.38694C19.3466 9.76236 19.77 10.2696 19.77 11C19.77 11.7304 19.3466 12.2376 19.0332 12.6131C19.0079 12.6434 18.9833 12.6728 18.9597 12.7015C18.4731 13.2923 17.7873 14.0588 16.9449 14.8236L15.5289 13.4075C16.3087 12.708 16.9537 11.9912 17.4159 11.43C17.5157 11.3088 17.5902 11.2182 17.6519 11.1385C17.7008 11.0754 17.7319 11.0315 17.7522 11C17.7319 10.9685 17.7008 10.9246 17.6519 10.8615C17.5902 10.7818 17.5157 10.6912 17.4159 10.57C16.7357 9.74418 15.6598 8.58138 14.3406 7.63233C13.0136 6.6776 11.5256 6 9.99977 6C9.44882 6 8.9028 6.08835 8.36751 6.24619L6.80675 4.68543Z" fill="#6F6969"/>
<path fill-rule="evenodd" clip-rule="evenodd" d="M18.293 17.7072L2.29297 1.70718L3.70718 0.292969L19.7072 16.293L18.293 17.7072Z" fill="#6F6969"/>
</svg>
