<svg width="20" height="18" viewBox="0 0 20 18" fill="none" xmlns="http://www.w3.org/2000/svg">
<path fill-rule="evenodd" clip-rule="evenodd" d="M17.3941 2.83384C15.6541 0.591092 12.1613 0.967218 10.9386 3.52902C10.5621 4.31784 9.43929 4.31784 9.0628 3.52902C7.84013 0.967219 4.34736 0.591095 2.6073 2.83385L2.29794 3.23257C0.810794 5.14934 1.02552 7.88275 2.79372 9.54379L9.74634 16.075C9.87335 16.1943 9.9426 16.2586 9.99618 16.2999C9.99775 16.3011 9.99926 16.3023 10.0007 16.3034C10.0022 16.3023 10.0037 16.3011 10.0052 16.2999C10.0588 16.2586 10.1281 16.1943 10.2551 16.075L17.2077 9.54379C18.9759 7.88275 19.1906 5.14933 17.7035 3.23256L17.3941 2.83384ZM10.0361 3.09829C11.5794 -0.135188 15.9879 -0.609931 18.1842 2.22084L18.4936 2.61957C20.2969 4.94386 20.0365 8.25844 17.8924 10.2726L10.9259 16.8169C10.8182 16.9181 10.7127 17.0172 10.6154 17.0921C10.5073 17.1755 10.3704 17.2605 10.1933 17.2953C10.0661 17.3202 9.93531 17.3202 9.80814 17.2953C9.63098 17.2605 9.49415 17.1755 9.38598 17.0921C9.2887 17.0172 9.18324 16.9181 9.07558 16.817L2.10905 10.2726C-0.0350997 8.25844 -0.295477 4.94387 1.50786 2.61957L1.81721 2.22085C4.0135 -0.609926 8.42204 -0.135189 9.96529 3.09829C9.97125 3.11078 9.9763 3.11393 9.9786 3.11531C9.98279 3.11783 9.99041 3.12063 10.0007 3.12063C10.011 3.12063 10.0186 3.11783 10.0228 3.11531C10.0251 3.11393 10.0302 3.11078 10.0361 3.09829Z" fill="#222222"/>
</svg>
