<svg width="18" height="20" viewBox="0 0 18 20" fill="none" xmlns="http://www.w3.org/2000/svg">
<path fill-rule="evenodd" clip-rule="evenodd" d="M4.93417 6C4.95604 6 4.97799 6 5 6L13.0658 6C13.9523 5.99995 14.7161 5.99991 15.3278 6.08215C15.9833 6.17028 16.6117 6.36902 17.1213 6.87868C17.631 7.38835 17.8297 8.0167 17.9179 8.67221C18.0001 9.28388 18.0001 10.0477 18 10.9342L18 13.0705C18 14.4247 18.0001 15.5413 17.8813 16.4251C17.7565 17.3529 17.4845 18.1723 16.8284 18.8284C16.1723 19.4845 15.3529 19.7565 14.4251 19.8813C13.5413 20.0001 12.4247 20 11.0706 20H6.92943C5.57531 20 4.4587 20.0001 3.57494 19.8813C2.64711 19.7565 1.82769 19.4845 1.17158 18.8284C0.515469 18.1723 0.243501 17.3529 0.118757 16.4251C-6.11022e-05 15.5413 -3.17732e-05 14.4247 3.63201e-06 13.0706L4.8241e-06 11C4.8241e-06 10.978 3.63201e-06 10.956 2.43991e-06 10.9342C-4.73896e-05 10.0477 -9.01893e-05 9.28387 0.0821453 8.67221C0.170277 8.0167 0.369022 7.38835 0.878684 6.87868C1.38835 6.36902 2.0167 6.17028 2.67221 6.08215C3.28387 5.99991 4.04769 5.99995 4.93417 6ZM2.93871 8.06431C2.50497 8.12263 2.36902 8.21677 2.2929 8.2929C2.21677 8.36902 2.12263 8.50497 2.06431 8.93871C2.00213 9.40121 2 10.0289 2 11V13C2 14.4425 2.00213 15.4238 2.10092 16.1586C2.19585 16.8646 2.36322 17.1916 2.58579 17.4142C2.80836 17.6368 3.13538 17.8042 3.84144 17.8991C4.57626 17.9979 5.55752 18 7 18H11C12.4425 18 13.4238 17.9979 14.1586 17.8991C14.8646 17.8042 15.1916 17.6368 15.4142 17.4142C15.6368 17.1916 15.8042 16.8646 15.8991 16.1586C15.9979 15.4238 16 14.4425 16 13V11C16 10.0289 15.9979 9.40122 15.9357 8.93871C15.8774 8.50497 15.7832 8.36902 15.7071 8.2929C15.631 8.21677 15.495 8.12263 15.0613 8.06431C14.5988 8.00213 13.9711 8 13 8H5C4.02893 8 3.40122 8.00213 2.93871 8.06431Z" fill="#10B981"/>
<path fill-rule="evenodd" clip-rule="evenodd" d="M4 5C4 2.23858 6.23858 0 9 0C11.7614 0 14 2.23858 14 5V6C14 6.55228 13.5523 7 13 7C12.4477 7 12 6.55228 12 6V5C12 3.34315 10.6569 2 9 2C7.34315 2 6 3.34315 6 5V6C6 6.55228 5.55228 7 5 7C4.44772 7 4 6.55228 4 6V5Z" fill="#10B981"/>
<path d="M11 13C11 14.1046 10.1046 15 9 15C7.89543 15 7 14.1046 7 13C7 11.8954 7.89543 11 9 11C10.1046 11 11 11.8954 11 13Z" fill="#10B981"/>
</svg>
