<svg width="32" height="32" viewBox="0 0 32 32" fill="none" xmlns="http://www.w3.org/2000/svg">
<path fill-rule="evenodd" clip-rule="evenodd" d="M6.51209 2.83337H25.4882C26.0301 2.83337 26.4672 2.83337 26.8211 2.86228C27.1856 2.89206 27.5057 2.95496 27.8018 3.10586C28.2722 3.34554 28.6547 3.72799 28.8943 4.1984C29.0452 4.49454 29.1081 4.81464 29.1379 5.17906C29.1668 5.533 29.1668 5.97007 29.1668 6.51196V25.4881C29.1668 26.03 29.1668 26.4671 29.1379 26.821C29.1081 27.1854 29.0452 27.5055 28.8943 27.8017C28.6547 28.2721 28.2722 28.6545 27.8018 28.8942C27.5057 29.0451 27.1856 29.108 26.8211 29.1378C26.4672 29.1667 26.0301 29.1667 25.4882 29.1667H6.51208C5.9702 29.1667 5.53312 29.1667 5.17919 29.1378C4.81476 29.108 4.49467 29.0451 4.19852 28.8942C3.72811 28.6545 3.34566 28.2721 3.10598 27.8017C2.95509 27.5055 2.89218 27.1854 2.86241 26.821C2.83349 26.4671 2.83349 26.03 2.8335 25.4881V6.51197C2.83349 5.97008 2.83349 5.533 2.86241 5.17906C2.89218 4.81464 2.95509 4.49454 3.10598 4.1984C3.34566 3.72799 3.72811 3.34554 4.19852 3.10586C4.49467 2.95496 4.81476 2.89206 5.17918 2.86228C5.53312 2.83337 5.9702 2.83337 6.51209 2.83337ZM5.26062 3.85896C4.95803 3.88368 4.78419 3.92977 4.65251 3.99686C4.37027 4.14067 4.1408 4.37015 3.99699 4.65239C3.92989 4.78407 3.88381 4.95791 3.85908 5.2605C3.83389 5.56892 3.8335 5.96507 3.8335 6.53338V25.4667C3.8335 26.035 3.83389 26.4312 3.85908 26.7396C3.88381 27.0422 3.92989 27.216 3.99699 27.3477C4.1408 27.6299 4.37027 27.8594 4.65251 28.0032C4.78419 28.0703 4.95803 28.1164 5.26062 28.1411C5.56904 28.1663 5.9652 28.1667 6.5335 28.1667H25.4668C26.0351 28.1667 26.4313 28.1663 26.7397 28.1411C27.0423 28.1164 27.2161 28.0703 27.3478 28.0032C27.6301 27.8594 27.8595 27.6299 28.0033 27.3477C28.0704 27.216 28.1165 27.0422 28.1412 26.7396C28.1664 26.4312 28.1668 26.035 28.1668 25.4667V6.53337C28.1668 5.96507 28.1664 5.56892 28.1412 5.26049C28.1165 4.95791 28.0704 4.78407 28.0033 4.65239C27.8595 4.37015 27.6301 4.14067 27.3478 3.99686C27.2161 3.92977 27.0423 3.88368 26.7397 3.85896C26.4313 3.83376 26.0351 3.83337 25.4668 3.83337H6.5335C5.96519 3.83337 5.56904 3.83376 5.26062 3.85896Z" fill="white"/>
<path fill-rule="evenodd" clip-rule="evenodd" d="M12.0002 15.8334C9.84682 15.8334 7.8335 17.5153 7.8335 20.0393C7.8335 21.3567 8.51296 22.5045 9.3841 23.4318C10.2524 24.3561 11.2656 25.0115 11.8219 25.3338C11.9337 25.3985 12.0666 25.3985 12.1784 25.3338C12.7347 25.0115 13.7479 24.3561 14.6162 23.4318C15.4874 22.5045 16.1668 21.3567 16.1668 20.0393C16.1668 17.5097 14.2311 15.8334 12.0002 15.8334ZM6.8335 20.0393C6.8335 16.9162 9.34249 14.8334 12.0002 14.8334C14.747 14.8334 17.1668 16.9218 17.1668 20.0393C17.1668 21.7138 16.3043 23.0954 15.3451 24.1165C14.383 25.1406 13.2773 25.8528 12.6797 26.199C12.2579 26.4434 11.7424 26.4434 11.3206 26.199C10.7231 25.8528 9.61735 25.1406 8.65527 24.1165C7.69599 23.0954 6.8335 21.7138 6.8335 20.0393Z" fill="white"/>
<path fill-rule="evenodd" clip-rule="evenodd" d="M17.1311 8.48096L25.1311 28.481L24.2026 28.8523L16.2026 8.85235L17.1311 8.48096Z" fill="white"/>
<path fill-rule="evenodd" clip-rule="evenodd" d="M3.23047 10.8441L28.5638 5.51074L28.7698 6.48929L3.43648 11.8226L3.23047 10.8441Z" fill="white"/>
<path d="M13.3332 20C13.3332 20.7363 12.7362 21.3333 11.9998 21.3333C11.2635 21.3333 10.6665 20.7363 10.6665 20C10.6665 19.2636 11.2635 18.6666 11.9998 18.6666C12.7362 18.6666 13.3332 19.2636 13.3332 20Z" fill="white"/>
</svg>
