<svg width="24" height="24" viewBox="0 0 24 24" fill="none" xmlns="http://www.w3.org/2000/svg">
<g clip-path="url(#clip0_0_4717)">
<path d="M18.3139 9.10696C18.0395 8.70817 17.5155 8.61383 17.1229 8.87833C16.7302 9.14282 16.6249 9.67912 16.8881 10.0709C17.6817 11.249 17.6798 12.7734 16.8835 13.9556L16.8828 13.9563C16.653 14.296 16.6966 14.7537 16.9854 15.0425C17.0241 15.0812 17.0664 15.1164 17.1129 15.1488C17.506 15.4105 18.0416 15.3059 18.3068 14.9125C19.4963 13.147 19.5002 10.8685 18.3139 9.10696Z" fill="#10B981"/>
<path d="M20.7331 6.60171C20.5979 6.42136 20.3929 6.30955 20.1665 6.28384C19.9351 6.25601 19.7072 6.32201 19.5249 6.46904C19.1548 6.76454 19.0939 7.3057 19.3888 7.67553C21.4252 10.2235 21.4213 13.7908 19.3797 16.3479C19.1061 16.6905 19.132 17.1814 19.4405 17.4899C19.4637 17.5131 19.4877 17.5342 19.5137 17.5546C19.6927 17.6982 19.9162 17.762 20.1448 17.7363C20.3727 17.7098 20.5767 17.5973 20.7202 17.4171C23.268 14.2271 23.2742 9.78019 20.7331 6.60171Z" fill="#10B981"/>
<path fill-rule="evenodd" clip-rule="evenodd" d="M10.6278 12.0031C10.6286 17.6438 14.5309 15.0213 14.5321 18.612C14.5326 22.0744 15.1809 23.4163 10.7941 23.4157C10.2985 23.3618 5.89587 24.2727 5.89416 12.0032C5.89245 -0.267719 10.2953 0.639858 10.7909 0.58604C15.1891 0.585894 14.529 1.92765 14.5295 5.39005C14.53 8.98148 10.627 6.3625 10.6278 12.0031Z" fill="#10B981"/>
</g>
<defs>
<clipPath id="clip0_0_4717">
<rect width="24" height="24" fill="white" transform="translate(24) rotate(90)"/>
</clipPath>
</defs>
</svg>
