<svg width="20" height="20" viewBox="0 0 20 20" fill="none" xmlns="http://www.w3.org/2000/svg">
<path fill-rule="evenodd" clip-rule="evenodd" d="M8.92684 7.30224e-07H11.0732C12.8966 -2.68071e-05 14.3664 -4.89801e-05 15.5223 0.155365C16.7225 0.31672 17.733 0.661912 18.5355 1.46447C19.3381 2.26702 19.6833 3.27752 19.8446 4.47767C20.0001 5.63363 20 7.1034 20 8.92686V11.0731C20 12.8966 20.0001 14.3664 19.8446 15.5223C19.6833 16.7225 19.3381 17.733 18.5355 18.5355C17.733 19.3381 16.7225 19.6833 15.5223 19.8446C14.3664 20.0001 12.8966 20 11.0731 20H8.92686C7.1034 20 5.63363 20.0001 4.47767 19.8446C3.27752 19.6833 2.26702 19.3381 1.46447 18.5355C0.661912 17.733 0.31672 16.7225 0.155365 15.5223C-4.89801e-05 14.3664 -2.68071e-05 12.8966 7.30224e-07 11.0732V8.92684C-2.68071e-05 7.10338 -4.89801e-05 5.63362 0.155365 4.47767C0.31672 3.27752 0.661912 2.26702 1.46447 1.46447C2.26702 0.661912 3.27752 0.31672 4.47767 0.155365C5.63362 -4.89801e-05 7.10338 -2.68071e-05 8.92684 7.30224e-07ZM4.74416 2.13753C3.76579 2.26907 3.2477 2.50966 2.87868 2.87868C2.50966 3.2477 2.26907 3.76579 2.13753 4.74416C2.00213 5.7513 2 7.08611 2 9V11C2 12.9139 2.00213 14.2487 2.13753 15.2558C2.26907 16.2342 2.50966 16.7523 2.87868 17.1213C3.2477 17.4903 3.76579 17.7309 4.74416 17.8625C5.7513 17.9979 7.08611 18 9 18H11C12.9139 18 14.2487 17.9979 15.2558 17.8625C16.2342 17.7309 16.7523 17.4903 17.1213 17.1213C17.4903 16.7523 17.7309 16.2342 17.8625 15.2558C17.9979 14.2487 18 12.9139 18 11V9C18 7.08611 17.9979 5.7513 17.8625 4.74416C17.7309 3.76579 17.4903 3.2477 17.1213 2.87868C16.7523 2.50966 16.2342 2.26907 15.2558 2.13753C14.2487 2.00213 12.9139 2 11 2H9C7.08611 2 5.7513 2.00213 4.74416 2.13753Z" fill="white"/>
<path fill-rule="evenodd" clip-rule="evenodd" d="M16.9997 11.5854L16.9794 11.5651C16.5898 11.1754 16.2537 10.8393 15.9536 10.5864C15.6367 10.3193 15.2917 10.0845 14.8665 9.95617C14.3014 9.78568 13.6986 9.78568 13.1335 9.95617C12.7083 10.0845 12.3633 10.3193 12.0464 10.5864C11.7463 10.8393 11.4102 11.1754 11.0206 11.5651L10.9921 11.5936C10.6852 11.9004 10.5046 12.0795 10.3645 12.1954L10.3443 12.2118L10.3317 12.1891C10.2447 12.0295 10.1435 11.7961 9.97255 11.3972L9.05341 11.7912L9.97255 11.3972L9.91914 11.2726L9.89706 11.2211C9.54111 10.3905 9.24222 9.693 8.9464 9.16734C8.64162 8.62574 8.26182 8.11783 7.66982 7.82106C7.17604 7.57352 6.6235 7.46711 6.07311 7.51356C5.41323 7.56924 4.87197 7.89977 4.38783 8.28944C3.98249 8.61569 3.52754 9.05981 3 9.58588V10.9999C3 11.5166 3.0003 11.9848 3.00308 12.411L4.117 11.2971C4.80615 10.6079 5.26639 10.1497 5.64186 9.84746C6.01276 9.54893 6.17233 9.51229 6.24128 9.50647C6.42475 9.49099 6.60893 9.52646 6.77352 9.60897C6.83539 9.63999 6.96994 9.73326 7.20344 10.1482C7.43981 10.5682 7.69693 11.1646 8.08085 12.0605L9 11.6665L8.08086 12.0605L8.13426 12.1851L8.1506 12.2232L8.15061 12.2232C8.29951 12.5708 8.43784 12.8936 8.57591 13.1468C8.72061 13.412 8.93076 13.7299 9.2847 13.9489C9.70199 14.2072 10.1997 14.3031 10.6831 14.2182C11.093 14.1463 11.4062 13.9292 11.6391 13.7367C11.8613 13.5529 12.1096 13.3045 12.377 13.0371L12.377 13.0371L12.4063 13.0078C12.8325 12.5816 13.1083 12.307 13.3353 12.1157C13.5526 11.9325 13.6552 11.8878 13.7112 11.8709C13.8995 11.8141 14.1005 11.8141 14.2888 11.8709C14.3448 11.8878 14.4474 11.9325 14.6647 12.1157C14.8917 12.307 15.1675 12.5816 15.5937 13.0078L16.9441 14.3582C16.9902 13.6404 16.9983 12.7479 16.9997 11.5854Z" fill="white"/>
<path d="M16 5.5C16 6.32843 15.3284 7 14.5 7C13.6716 7 13 6.32843 13 5.5C13 4.67157 13.6716 4 14.5 4C15.3284 4 16 4.67157 16 5.5Z" fill="white"/>
</svg>
