<svg width="27" height="19" viewBox="0 0 27 19" fill="none" xmlns="http://www.w3.org/2000/svg">
<path fill-rule="evenodd" clip-rule="evenodd" d="M13.5 6.31616C11.7741 6.31616 10.375 7.71527 10.375 9.44116C10.375 11.1671 11.7741 12.5662 13.5 12.5662C15.2259 12.5662 16.625 11.1671 16.625 9.44116C16.625 7.71527 15.2259 6.31616 13.5 6.31616ZM8.375 9.44116C8.375 6.6107 10.6695 4.31616 13.5 4.31616C16.3305 4.31616 18.625 6.6107 18.625 9.44116C18.625 12.2716 16.3305 14.5662 13.5 14.5662C10.6695 14.5662 8.375 12.2716 8.375 9.44116Z" fill="#C6C6C6"/>
<path fill-rule="evenodd" clip-rule="evenodd" d="M7.31283 4.50622C5.46307 5.83704 3.96036 7.46243 3.01387 8.61158C2.72866 8.95789 2.58615 9.13499 2.50034 9.27883C2.44136 9.3777 2.44138 9.40773 2.44141 9.43928L2.44141 9.44116L2.44141 9.44305C2.44138 9.4746 2.44136 9.50463 2.50034 9.60349C2.58615 9.74733 2.72868 9.92446 3.01389 10.2708C3.96037 11.4199 5.46307 13.0453 7.31283 14.3761C9.17048 15.7126 11.293 16.6912 13.5005 16.6912C15.708 16.6912 17.8305 15.7126 19.6882 14.3761C21.5379 13.0453 23.0406 11.4199 23.9871 10.2707C24.2724 9.92444 24.4149 9.74729 24.5008 9.60345C24.5597 9.5046 24.5597 9.47458 24.5597 9.44306V9.43927C24.5597 9.40774 24.5597 9.37772 24.5008 9.27887C24.4149 9.13503 24.2724 8.95791 23.9872 8.6116C23.0407 7.46245 21.5379 5.83704 19.6882 4.50622C17.8305 3.16971 15.708 2.19116 13.5005 2.19116C11.293 2.19116 9.17049 3.16971 7.31283 4.50622ZM6.1448 2.88273C8.17848 1.41958 10.7089 0.191162 13.5005 0.191162C16.2921 0.191162 18.8225 1.41959 20.8562 2.88273C22.8978 4.35156 24.5248 6.1185 25.5309 7.34006C25.5617 7.37744 25.593 7.41507 25.6245 7.45303C26.0654 7.98386 26.5597 8.57884 26.5597 9.44116C26.5597 10.3035 26.0654 10.8985 25.6245 11.4293M25.5309 11.5423C24.5248 12.7639 22.8978 14.5308 20.8562 15.9996C18.8225 17.4628 16.2921 18.6912 13.5005 18.6912C10.7089 18.6912 8.17848 17.4628 6.1448 15.9996C4.10323 14.5308 2.47623 12.7639 1.47009 11.5422C1.4393 11.5049 1.40803 11.4672 1.3765 11.4293C0.935585 10.8984 0.441406 10.3035 0.441406 9.44116C0.441406 8.57887 0.935586 7.98391 1.3765 7.45307C1.40803 7.41511 1.43929 7.37747 1.47008 7.34009C2.47621 6.11852 4.10323 4.35156 6.1448 2.88273" fill="#C6C6C6"/>
</svg>
