<svg width="19" height="25" viewBox="0 0 19 25" fill="none" xmlns="http://www.w3.org/2000/svg">
<path fill-rule="evenodd" clip-rule="evenodd" d="M3.4375 6.56013C3.4375 3.22474 6.15834 0.532715 9.5 0.532715C12.8417 0.532715 15.5625 3.22474 15.5625 6.56013C15.5625 9.89552 12.8417 12.5875 9.5 12.5875C6.15834 12.5875 3.4375 9.89552 3.4375 6.56013ZM9.5 2.53271C7.24978 2.53271 5.4375 4.3424 5.4375 6.56013C5.4375 8.77786 7.24978 10.5875 9.5 10.5875C11.7502 10.5875 13.5625 8.77786 13.5625 6.56013C13.5625 4.34239 11.7502 2.53271 9.5 2.53271Z" fill="#B6B6B6"/>
<path fill-rule="evenodd" clip-rule="evenodd" d="M6.76786 15.9392C4.47325 15.9392 2.625 17.7846 2.625 20.0464C2.625 21.6031 3.89762 22.8768 5.48214 22.8768H13.5178C15.1024 22.8768 16.375 21.6031 16.375 20.0464C16.375 17.7846 14.5267 15.9392 12.2322 15.9392H6.76786ZM0.625 20.0464C0.625 16.667 3.38183 13.9392 6.76786 13.9392H12.2322C15.6182 13.9392 18.375 16.667 18.375 20.0464C18.375 22.7208 16.1938 24.8768 13.5178 24.8768H5.48214C2.80618 24.8768 0.625 22.7208 0.625 20.0464Z" fill="#B6B6B6"/>
</svg>
