<svg width="22" height="22" viewBox="0 0 22 22" fill="none" xmlns="http://www.w3.org/2000/svg">
<path fill-rule="evenodd" clip-rule="evenodd" d="M2.33333 2.25C2.31123 2.25 2.29004 2.25878 2.27441 2.27441C2.25878 2.29004 2.25 2.31123 2.25 2.33333V19.6667C2.25 19.6888 2.25878 19.71 2.27441 19.7256C2.29003 19.7412 2.31123 19.75 2.33333 19.75H9.91667C10.469 19.75 10.9167 20.1977 10.9167 20.75C10.9167 21.3023 10.469 21.75 9.91667 21.75H2.33333C1.7808 21.75 1.2509 21.5305 0.860194 21.1398C0.469493 20.7491 0.25 20.2192 0.25 19.6667V2.33333C0.25 1.7808 0.469493 1.2509 0.860194 0.860194C1.25089 0.469493 1.7808 0.25 2.33333 0.25H12.0833C12.3485 0.25 12.6029 0.355357 12.7904 0.542893L17.1238 4.87623C17.3113 5.06376 17.4167 5.31812 17.4167 5.58333V14.25C17.4167 14.8023 16.969 15.25 16.4167 15.25C15.8644 15.25 15.4167 14.8023 15.4167 14.25V5.99755L11.6691 2.25H2.33333Z" fill="#C6C6C6"/>
<path fill-rule="evenodd" clip-rule="evenodd" d="M21.4571 15.7094C21.8476 16.0999 21.8476 16.7331 21.4571 17.1236L17.1238 21.4569C16.7332 21.8475 16.1001 21.8475 15.7096 21.4569L13.5429 19.2903C13.1524 18.8998 13.1524 18.2666 13.5429 17.8761C13.9334 17.4855 14.5666 17.4855 14.9571 17.8761L16.4167 19.3356L20.0429 15.7094C20.4334 15.3189 21.0666 15.3189 21.4571 15.7094Z" fill="#C6C6C6"/>
</svg>
