<svg width="21" height="25" viewBox="0 0 21 25" fill="none" xmlns="http://www.w3.org/2000/svg">
<path fill-rule="evenodd" clip-rule="evenodd" d="M2.33333 2.25C2.31123 2.25 2.29004 2.25878 2.27441 2.27441C2.25878 2.29004 2.25 2.31123 2.25 2.33333V19.6667C2.25 19.6888 2.25878 19.71 2.27441 19.7256C2.29003 19.7412 2.31123 19.75 2.33333 19.75H9.91667C10.469 19.75 10.9167 20.1977 10.9167 20.75C10.9167 21.3023 10.469 21.75 9.91667 21.75H2.33333C1.7808 21.75 1.2509 21.5305 0.860194 21.1398C0.469493 20.7491 0.25 20.2192 0.25 19.6667V2.33333C0.25 1.7808 0.469493 1.2509 0.860194 0.860194C1.25089 0.469493 1.7808 0.25 2.33333 0.25H12.0833C12.3485 0.25 12.6029 0.355357 12.7904 0.542893L17.1238 4.87623C17.3113 5.06376 17.4167 5.31812 17.4167 5.58333V14.25C17.4167 14.8023 16.969 15.25 16.4167 15.25C15.8644 15.25 15.4167 14.8023 15.4167 14.25V5.99755L11.6691 2.25H2.33333Z" fill="#10B981"/>
<path d="M16 17.5C16 17.2239 16.2239 17 16.5 17V17C16.7761 17 17 17.2239 17 17.5V23.5C17 23.7761 16.7761 24 16.5 24V24C16.2239 24 16 23.7761 16 23.5V17.5Z" fill="#10B981"/>
<path fill-rule="evenodd" clip-rule="evenodd" d="M17.5 17.5V23.5C17.5 24.0523 17.0523 24.5 16.5 24.5C15.9477 24.5 15.5 24.0523 15.5 23.5V17.5C15.5 16.9477 15.9477 16.5 16.5 16.5C17.0523 16.5 17.5 16.9477 17.5 17.5ZM16.5 17C16.2239 17 16 17.2239 16 17.5V23.5C16 23.7761 16.2239 24 16.5 24C16.7761 24 17 23.7761 17 23.5V17.5C17 17.2239 16.7761 17 16.5 17Z" fill="#10B981"/>
<path d="M13.5 21C13.2239 21 13 20.7761 13 20.5V20.5C13 20.2239 13.2239 20 13.5 20L19.5 20C19.7761 20 20 20.2239 20 20.5V20.5C20 20.7761 19.7761 21 19.5 21L13.5 21Z" fill="#10B981"/>
<path fill-rule="evenodd" clip-rule="evenodd" d="M13.5 19.5L19.5 19.5C20.0523 19.5 20.5 19.9477 20.5 20.5C20.5 21.0523 20.0523 21.5 19.5 21.5L13.5 21.5C12.9477 21.5 12.5 21.0523 12.5 20.5C12.5 19.9477 12.9477 19.5 13.5 19.5ZM13 20.5C13 20.7761 13.2239 21 13.5 21L19.5 21C19.7761 21 20 20.7761 20 20.5C20 20.2239 19.7761 20 19.5 20L13.5 20C13.2239 20 13 20.2239 13 20.5Z" fill="#10B981"/>
</svg>
