<svg width="24" height="20" viewBox="0 0 24 20" fill="none" xmlns="http://www.w3.org/2000/svg">
<path d="M0.625001 9.99997C0.624433 8.36357 1.03574 6.75336 1.82102 5.3177C2.60631 3.88204 3.7403 2.66712 5.11852 1.78489C6.49673 0.902669 8.07482 0.38152 9.70738 0.269469C11.3399 0.157418 12.9744 0.458069 14.4603 1.14372C14.754 1.27926 14.9818 1.52593 15.0936 1.82946C15.2055 2.13298 15.1922 2.46851 15.0566 2.76222C14.9211 3.05593 14.6744 3.28377 14.3709 3.39561C14.0674 3.50745 13.7318 3.49414 13.4381 3.35859C12.324 2.84559 11.0987 2.62107 9.87507 2.70571C8.65143 2.79036 7.46873 3.18144 6.43585 3.84296C5.40296 4.50449 4.55307 5.4152 3.9644 6.49128C3.37573 7.56735 3.06719 8.77421 3.06719 10.0008C3.06719 11.2273 3.37573 12.4342 3.9644 13.5103C4.55307 14.5864 5.40296 15.4971 6.43585 16.1586C7.46873 16.8201 8.65143 17.2112 9.87507 17.2958C11.0987 17.3805 12.324 17.156 13.4381 16.643C13.5838 16.5722 13.7421 16.5312 13.9038 16.5223C14.0656 16.5135 14.2274 16.5369 14.38 16.5913C14.5325 16.6457 14.6727 16.73 14.7923 16.8392C14.9119 16.9484 15.0086 17.0803 15.0766 17.2273C15.1446 17.3743 15.1827 17.5333 15.1885 17.6952C15.1944 17.857 15.1679 18.0184 15.1107 18.1699C15.0535 18.3214 14.9666 18.46 14.8552 18.5776C14.7438 18.6951 14.6101 18.7893 14.4619 18.8546C12.9761 19.5405 11.3416 19.8415 9.70893 19.7297C8.07628 19.6179 6.49804 19.097 5.11964 18.2149C3.74124 17.3328 2.60704 16.118 1.82155 14.6823C1.03607 13.2467 0.624579 11.6364 0.625001 9.99997Z" fill="#C6C6C6"/>
<path d="M17.2731 4.62924C17.1546 4.73696 17.0585 4.86699 16.9903 5.01187C16.9221 5.15676 16.8831 5.31368 16.8755 5.47365C16.868 5.63362 16.892 5.79351 16.9463 5.94418C17.0006 6.09485 17.084 6.23334 17.1919 6.35174L19.4019 8.78112H9.96875C9.64552 8.78112 9.33552 8.90952 9.10696 9.13808C8.8784 9.36664 8.75 9.67663 8.75 9.99987C8.75 10.3231 8.8784 10.6331 9.10696 10.8617C9.33552 11.0902 9.64552 11.2186 9.96875 11.2186H19.4019L17.1919 13.648C16.9742 13.8872 16.8605 14.203 16.8758 14.5261C16.891 14.8491 17.0339 15.1528 17.2731 15.3705C17.5123 15.5881 17.8282 15.7018 18.1512 15.6866C18.4742 15.6714 18.778 15.5284 18.9956 15.2892L23.0581 10.8205C23.2637 10.5958 23.3774 10.3021 23.3768 9.99761C23.3762 9.69307 23.2613 9.39986 23.0549 9.17599L18.9956 4.71049C18.8879 4.59198 18.7579 4.49587 18.613 4.42765C18.4681 4.35942 18.3112 4.32042 18.1512 4.31288C17.9912 4.30533 17.8314 4.32939 17.6807 4.38367C17.53 4.43796 17.3915 4.5214 17.2731 4.62924Z" fill="#C6C6C6"/>
</svg>
