<svg width="8" height="8" viewBox="0 0 8 8" fill="none" xmlns="http://www.w3.org/2000/svg">
<path fill-rule="evenodd" clip-rule="evenodd" d="M7.7276 0.46967C8.02049 0.762563 8.02049 1.23744 7.7276 1.53033L1.7276 7.53033C1.4347 7.82322 0.959829 7.82322 0.666936 7.53033C0.374042 7.23744 0.374042 6.76256 0.666936 6.46967L6.66694 0.46967C6.95983 0.176777 7.4347 0.176777 7.7276 0.46967Z" fill="#1E1E1E"/>
<path fill-rule="evenodd" clip-rule="evenodd" d="M0.666935 0.46967C0.374043 0.762563 0.374043 1.23744 0.666935 1.53033L6.66694 7.53033C6.95983 7.82322 7.4347 7.82322 7.7276 7.53033C8.02049 7.23744 8.02049 6.76256 7.7276 6.46967L1.7276 0.46967C1.4347 0.176777 0.959829 0.176777 0.666935 0.46967Z" fill="#1E1E1E"/>
</svg>
