<svg width="20" height="14" viewBox="0 0 20 14" fill="none" xmlns="http://www.w3.org/2000/svg">
<path fill-rule="evenodd" clip-rule="evenodd" d="M10 9C11.1046 9 12 8.10457 12 7C12 5.89543 11.1046 5 10 5C8.89543 5 8 5.89543 8 7C8 8.10457 8.89543 9 10 9ZM10 11C12.2091 11 14 9.20914 14 7C14 4.79086 12.2091 3 10 3C7.79086 3 6 4.79086 6 7C6 9.20914 7.79086 11 10 11Z" fill="#10B981"/>
<path fill-rule="evenodd" clip-rule="evenodd" d="M5.6589 3.63233C4.33978 4.58138 3.26385 5.74418 2.58362 6.57005C2.48385 6.69118 2.40934 6.78179 2.34761 6.86149C2.29874 6.92459 2.26762 6.96852 2.24731 7C2.26762 7.03148 2.29874 7.07541 2.34761 7.13851C2.40934 7.21821 2.48385 7.30882 2.58362 7.42995C3.26384 8.25582 4.33978 9.41862 5.6589 10.3677C6.98592 11.3224 8.47397 12 9.99977 12C11.5256 12 13.0136 11.3224 14.3406 10.3677C15.6598 9.41862 16.7357 8.25582 17.4159 7.42995C17.5157 7.30882 17.5902 7.21821 17.6519 7.13851C17.7008 7.07541 17.7319 7.03147 17.7522 7C17.7319 6.96852 17.7008 6.92458 17.6519 6.86149C17.5902 6.78179 17.5157 6.69118 17.4159 6.57005C16.7357 5.74418 15.6598 4.58138 14.3406 3.63233C13.0136 2.6776 11.5256 2 9.99977 2C8.47397 2 6.98592 2.6776 5.6589 3.63233ZM4.49087 2.00884C5.99391 0.927471 7.88983 0 9.99977 0C12.1097 0 14.0056 0.927472 15.5087 2.00885C17.0196 3.0959 18.2198 4.40025 18.9597 5.29853C18.9833 5.32717 19.0079 5.35662 19.0332 5.38694C19.3466 5.76236 19.77 6.26957 19.77 7C19.77 7.73043 19.3466 8.23764 19.0332 8.61306C19.0079 8.64338 18.9833 8.67283 18.9597 8.70148C18.2198 9.59976 17.0196 10.9041 15.5087 11.9912C14.0056 13.0725 12.1097 14 9.99977 14C7.88983 14 5.99391 13.0725 4.49087 11.9912C2.97993 10.9041 1.77972 9.59975 1.03985 8.70147C1.01626 8.67283 0.991668 8.64338 0.96636 8.61306C0.652936 8.23764 0.229492 7.73043 0.229492 7C0.229492 6.26957 0.652937 5.76236 0.966361 5.38694C0.991669 5.35662 1.01626 5.32717 1.03985 5.29852C1.77972 4.40024 2.97993 3.0959 4.49087 2.00884Z" fill="#10B981"/>
</svg>
