<svg width="24" height="22" viewBox="0 0 24 22" fill="none" xmlns="http://www.w3.org/2000/svg">
<path d="M23.0273 8.5665C22.8114 7.29137 22.3051 6.09621 21.5219 5.01412C20.6373 3.79192 19.4272 2.77142 18.0224 2.06307C16.6026 1.3471 15.0178 0.968506 13.4393 0.968506C12.994 0.968506 12.5451 0.998777 12.1051 1.05802C10.2621 1.30701 8.44998 2.07367 7.00242 3.21682C5.37141 4.50482 4.31886 6.16078 3.95878 8.00598C3.85149 8.55453 3.80579 9.16135 3.76154 9.74809C3.69219 10.6666 3.6205 11.6163 3.32844 12.2369C3.12883 12.6611 2.83099 12.9435 2.02586 12.9435C1.58278 12.9435 1.17791 13.1941 0.980144 13.5907C0.782505 13.9873 0.826112 14.4615 1.09269 14.8151C2.30571 16.4244 3.88866 17.399 5.55526 17.9863C5.47936 18.2156 5.43668 18.4597 5.43668 18.7145C5.43668 19.9941 6.47399 21.0314 7.75359 21.0314C9.00154 21.0314 10.0161 20.0441 10.0656 18.8084C10.6089 18.8379 13.1958 18.845 13.4843 18.8368C13.5483 20.0592 14.5568 21.0313 15.7951 21.0313C17.0745 21.0313 18.1118 19.9941 18.1118 18.7144C18.1118 18.4227 18.0556 18.1447 17.9574 17.8877C18.8659 17.4458 19.7234 16.8495 20.4717 16.1313C21.5152 15.13 22.281 13.9486 22.6868 12.7148C23.1434 11.3262 23.2582 9.93054 23.0273 8.5665ZM7.75358 19.4789C7.33138 19.4789 6.98903 19.1368 6.98903 18.7144C6.98903 18.2922 7.33138 17.9498 7.75358 17.9498C8.17591 17.9498 8.51814 18.2922 8.51814 18.7144C8.51814 19.1368 8.17591 19.4789 7.75358 19.4789ZM15.7951 19.4789C15.3727 19.4789 15.0304 19.1368 15.0304 18.7144C15.0304 18.2922 15.3727 17.9498 15.7951 17.9498C16.2174 17.9498 16.5596 18.2922 16.5596 18.7144C16.5597 19.1368 16.2174 19.4789 15.7951 19.4789ZM21.5769 12.3499C20.9078 14.3841 19.1443 16.0638 17.2649 16.9238C16.8648 16.595 16.3532 16.3977 15.7952 16.3977C14.8959 16.3977 14.1181 16.9107 13.7342 17.6594C13.3434 17.6761 10.4335 17.6649 9.79668 17.6218C9.40639 16.8934 8.63816 16.3977 7.75371 16.3977C7.16539 16.3977 6.62973 16.6186 6.22132 16.98C4.63837 16.4684 3.1434 15.5944 2.02599 14.1116C5.33017 14.1116 4.67816 10.4191 5.10561 8.22947C5.75684 4.89231 9.05826 2.64842 12.2615 2.21573C12.6554 2.16261 13.0494 2.13661 13.4393 2.13661C18.7038 2.13674 23.39 6.83713 21.5769 12.3499ZM13.395 13.9735C11.4939 13.9735 9.78119 12.727 9.46707 11.0954C9.40613 10.7786 9.61361 10.4722 9.93037 10.4113C10.2472 10.3502 10.5535 10.5578 10.6144 10.8746C10.7991 11.8338 11.9476 12.8439 13.4785 12.8039C15.0733 12.7621 16.1266 11.8084 16.3431 10.8881C16.417 10.5742 16.7319 10.3797 17.0456 10.4532C17.3599 10.5271 17.5545 10.8417 17.4806 11.1556C17.3038 11.9069 16.82 12.603 16.1181 13.1158C15.387 13.6502 14.4847 13.9462 13.5093 13.972C13.4712 13.9731 13.433 13.9735 13.395 13.9735ZM17.1783 7.95718C17.1783 8.57689 16.6758 9.07932 16.0561 9.07932C15.4366 9.07932 14.9341 8.57689 14.9341 7.95718C14.9341 7.33747 15.4366 6.8353 16.0561 6.8353C16.6758 6.8353 17.1783 7.33734 17.1783 7.95718ZM11.9363 7.95718C11.9363 8.57689 11.434 9.07932 10.8143 9.07932C10.1947 9.07932 9.69228 8.57689 9.69228 7.95718C9.69228 7.33747 10.1947 6.8353 10.8143 6.8353C11.434 6.8353 11.9363 7.33734 11.9363 7.95718Z" fill="#33363F"/>
</svg>
