<svg width="16" height="15" viewBox="0 0 16 15" fill="none" xmlns="http://www.w3.org/2000/svg">
<path d="M5.92318 2.7994C6.61146 1.08352 6.9556 0.225586 7.54738 0.225586C8.13917 0.225586 8.48331 1.08352 9.17159 2.7994L9.20364 2.8793C9.59248 3.84868 9.7869 4.33337 10.1831 4.62798C10.5794 4.92258 11.0995 4.96916 12.1398 5.06233L12.3279 5.07917C14.0305 5.23165 14.8818 5.30789 15.064 5.8495C15.2461 6.39112 14.6139 6.96629 13.3495 8.11664L12.9275 8.50057C12.2874 9.0829 11.9674 9.37406 11.8182 9.75568C11.7904 9.82686 11.7673 9.89979 11.749 9.974C11.6509 10.3718 11.7446 10.7942 11.9321 11.639L11.9904 11.902C12.3349 13.4545 12.5071 14.2308 12.2064 14.5656C12.094 14.6907 11.948 14.7808 11.7857 14.8251C11.3516 14.9436 10.7351 14.4413 9.50231 13.4367C8.69279 12.777 8.28803 12.4472 7.82331 12.373C7.64052 12.3438 7.45425 12.3438 7.27146 12.373C6.80674 12.4472 6.40198 12.777 5.59245 13.4367C4.35962 14.4413 3.7432 14.9436 3.30903 14.8251C3.14679 14.7808 3.00074 14.6907 2.88837 14.5656C2.58765 14.2308 2.75988 13.4545 3.10435 11.902L3.16269 11.639C3.35012 10.7942 3.44384 10.3718 3.34579 9.974C3.3275 9.89979 3.30437 9.82686 3.27655 9.75568C3.12738 9.37406 2.80735 9.0829 2.16728 8.50057L1.74528 8.11664C0.480869 6.96629 -0.151338 6.39112 0.0308182 5.8495C0.212974 5.30789 1.06427 5.23165 2.76685 5.07917L2.95493 5.06233C3.99523 4.96916 4.51538 4.92258 4.91162 4.62798C5.30786 4.33337 5.50229 3.84868 5.89113 2.8793L5.92318 2.7994Z" fill="#10B981"/>
</svg>
