<svg width="18" height="18" viewBox="0 0 18 18" fill="none" xmlns="http://www.w3.org/2000/svg">
<path fill-rule="evenodd" clip-rule="evenodd" d="M8.92685 7.30224e-07H9.07318C10.8966 -2.68071e-05 12.3664 -4.89801e-05 13.5223 0.155365C14.7225 0.31672 15.733 0.661912 16.5355 1.46447C17.3381 2.26702 17.6833 3.27752 17.8447 4.47767C18.0001 5.63363 18 7.1034 18 8.92686V9.07314C18 10.8966 18.0001 12.3664 17.8447 13.5223C17.6833 14.7225 17.3381 15.733 16.5355 16.5355C15.733 17.3381 14.7225 17.6833 13.5223 17.8446C12.3664 18.0001 10.8966 18 9.07315 18H3.00001C2.98187 18 2.96373 18 2.94562 18C2.52155 18.0001 2.10941 18.0002 1.76949 17.9545C1.38629 17.903 0.949016 17.7774 0.585801 17.4142C0.222585 17.051 0.0970634 16.6137 0.0455431 16.2305C-0.000157174 15.8906 -7.62302e-05 15.4785 7.09714e-06 15.0544C1.06734e-05 15.0363 1.42497e-05 15.0182 1.42497e-05 15L1.35344e-05 8.92684C-1.40029e-05 7.10338 -3.618e-05 5.63362 0.155378 4.47767C0.316733 3.27752 0.661925 2.26702 1.46448 1.46447C2.26704 0.661912 3.27753 0.31672 4.47768 0.155365C5.63364 -4.89801e-05 7.1034 -2.68071e-05 8.92685 7.30224e-07ZM4.74417 2.13753C3.76581 2.26907 3.24771 2.50966 2.87869 2.87868C2.50968 3.2477 2.26908 3.76579 2.13754 4.74416C2.00214 5.7513 2.00001 7.08611 2.00001 9V15C2.00001 15.4997 2.00214 15.7738 2.02771 15.964C2.02804 15.9665 2.02837 15.9689 2.02871 15.9713C2.03108 15.9716 2.03351 15.972 2.03599 15.9723C2.22618 15.9979 2.50034 16 3.00001 16H9.00001C10.9139 16 12.2487 15.9979 13.2559 15.8625C14.2342 15.7309 14.7523 15.4903 15.1213 15.1213C15.4904 14.7523 15.7309 14.2342 15.8625 13.2558C15.9979 12.2487 16 10.9139 16 9C16 7.08611 15.9979 5.7513 15.8625 4.74416C15.7309 3.76579 15.4904 3.2477 15.1213 2.87868C14.7523 2.50966 14.2342 2.26907 13.2559 2.13753C12.2487 2.00213 10.9139 2 9.00001 2C7.08613 2 5.75131 2.00213 4.74417 2.13753Z" fill="#10B981"/>
<path fill-rule="evenodd" clip-rule="evenodd" d="M5 7C5 6.44772 5.44772 6 6 6L12 6C12.5523 6 13 6.44772 13 7C13 7.55228 12.5523 8 12 8L6 8C5.44772 8 5 7.55228 5 7Z" fill="#10B981"/>
<path fill-rule="evenodd" clip-rule="evenodd" d="M5 11C5 10.4477 5.44772 10 6 10H9C9.55228 10 10 10.4477 10 11C10 11.5523 9.55228 12 9 12H6C5.44772 12 5 11.5523 5 11Z" fill="#10B981"/>
</svg>
