<svg width="18" height="19" viewBox="0 0 18 19" fill="none" xmlns="http://www.w3.org/2000/svg">
<path fill-rule="evenodd" clip-rule="evenodd" d="M3.63101 13.3732C5.19371 12.4738 7.08042 12 8.9999 12C10.9194 12 12.8061 12.4738 14.3688 13.3732C15.9309 14.2722 17.1187 15.5702 17.669 17.1106C17.8548 17.6307 17.5838 18.203 17.0637 18.3888C16.5437 18.5746 15.9714 18.3036 15.7856 17.7835C15.4243 16.7723 14.6034 15.8157 13.3712 15.1066C12.1396 14.3978 10.6026 14 8.9999 14C7.39723 14 5.86021 14.3978 4.6286 15.1066C3.39641 15.8157 2.57546 16.7723 2.21419 17.7835C2.02838 18.3036 1.45614 18.5746 0.93605 18.3888C0.415961 18.203 0.144974 17.6307 0.330784 17.1106C0.881117 15.5702 2.06889 14.2721 3.63101 13.3732Z" fill="#10B981"/>
<path fill-rule="evenodd" clip-rule="evenodd" d="M9 2C7.34315 2 6 3.34315 6 5C6 6.65685 7.34315 8 9 8C10.6569 8 12 6.65685 12 5C12 3.34315 10.6569 2 9 2ZM4 5C4 2.23858 6.23858 0 9 0C11.7614 0 14 2.23858 14 5C14 7.76142 11.7614 10 9 10C6.23858 10 4 7.76142 4 5Z" fill="#10B981"/>
</svg>
