<svg width="19" height="19" viewBox="0 0 19 19" fill="none" xmlns="http://www.w3.org/2000/svg">
<path fill-rule="evenodd" clip-rule="evenodd" d="M9.5 1.5C7.29086 1.5 5.5 3.29086 5.5 5.5C5.5 7.70912 7.29087 9.5 9.5 9.5C11.7091 9.5 13.5 7.70912 13.5 5.5C13.5 3.29087 11.7091 1.5 9.5 1.5ZM4.5 5.5C4.5 2.73858 6.73858 0.5 9.5 0.5C12.2614 0.5 14.5 2.73858 14.5 5.5C14.5 8.2614 12.2614 10.5 9.5 10.5C6.73858 10.5 4.5 8.2614 4.5 5.5Z" fill="white"/>
<path fill-rule="evenodd" clip-rule="evenodd" d="M3.81991 15.3015C2.61577 15.8492 1.89647 16.7234 1.47984 18.141C1.40198 18.4059 1.12408 18.5576 0.859147 18.4797C0.59421 18.4018 0.442555 18.124 0.520418 17.859C1.00789 16.2003 1.90358 15.0745 3.40591 14.3912C4.863 13.7286 6.85453 13.5 9.50013 13.5C12.1457 13.5 14.1372 13.7286 15.5943 14.3912C17.0967 15.0745 17.9924 16.2003 18.4798 17.859C18.5577 18.124 18.4061 18.4018 18.1411 18.4797C17.8762 18.5576 17.5983 18.4059 17.5204 18.141C17.1038 16.7234 16.3845 15.8492 15.1803 15.3015C13.931 14.7333 12.1245 14.5 9.50013 14.5C6.87572 14.5 5.06929 14.7333 3.81991 15.3015Z" fill="white"/>
</svg>
