<svg width="31" height="31" viewBox="0 0 31 31" fill="none" xmlns="http://www.w3.org/2000/svg">
<path fill-rule="evenodd" clip-rule="evenodd" d="M19.2907 18.1747C19.1309 18.6232 18.3637 19.0321 17.9946 19.0873C17.6642 19.1367 17.2457 19.157 16.7856 19.0117C16.4142 18.8958 16.0491 18.7607 15.6918 18.6068C13.766 17.7756 12.5076 15.8371 12.4117 15.7092C12.3157 15.5814 11.6279 14.6688 11.6279 13.7243C11.6279 12.7797 12.1239 12.3147 12.3002 12.1229C12.4756 11.9311 12.6839 11.8827 12.8117 11.8827C12.9396 11.8827 13.0675 11.8837 13.1799 11.8895C13.2981 11.8953 13.456 11.8449 13.6119 12.2188C13.7718 12.6034 14.1554 13.548 14.2038 13.6439C14.2513 13.7398 14.2833 13.8522 14.2193 13.98C14.1554 14.1079 14.1234 14.1883 14.0275 14.3007C13.9316 14.4121 13.826 14.5506 13.7398 14.6368C13.6439 14.7318 13.5432 14.8364 13.6555 15.0282C13.7679 15.22 14.1525 15.8487 14.7231 16.3573C15.4564 17.0112 16.0755 17.2137 16.2673 17.3106C16.4591 17.4065 16.5715 17.39 16.6829 17.2622C16.7952 17.1343 17.1634 16.7022 17.2912 16.5094C17.4191 16.3176 17.547 16.3496 17.7233 16.4135C17.8987 16.4775 18.8432 16.9415 19.035 17.0384C19.2268 17.1343 19.3547 17.1817 19.4031 17.2622C19.4506 17.3426 19.4506 17.7262 19.2907 18.1747ZM15.5349 9.04715C12.0125 9.04715 9.14696 11.9108 9.146 15.4302C9.146 16.6363 9.48312 17.8114 10.1225 18.8277L10.2746 19.0689L9.6294 21.4249L12.0464 20.7913L12.2789 20.9289C13.2627 21.5121 14.3854 21.8197 15.5291 21.8192H15.532C19.0515 21.8192 21.9161 18.9555 21.918 15.4351C21.9205 14.5961 21.7567 13.765 21.4359 12.9898C21.1152 12.2146 20.6439 11.5107 20.0493 10.9188C19.4579 10.3238 18.7544 9.85208 17.9795 9.53082C17.2047 9.20955 16.3737 9.04516 15.5349 9.04715Z" fill="#67D449"/>
<path fill-rule="evenodd" clip-rule="evenodd" d="M15.532 23.1163H15.5291C14.2426 23.1163 12.9793 22.7937 11.8575 22.1815L7.78391 23.25L8.87472 19.2694C8.20081 18.1019 7.84693 16.7773 7.84881 15.4293C7.85075 11.1949 11.2966 7.75 15.532 7.75C16.5418 7.74704 17.5422 7.94461 18.4752 8.33124C19.4081 8.71788 20.2549 9.2859 20.9667 10.0023C21.6821 10.7144 22.2493 11.5613 22.6352 12.494C23.0212 13.4267 23.2183 14.4267 23.2151 15.4361C23.2132 19.6705 19.7664 23.1163 15.532 23.1163ZM15.5 0C6.93916 0 0 6.93916 0 15.5C0 24.0599 6.93916 31 15.5 31C24.0599 31 31 24.0599 31 15.5C31 6.93916 24.0599 0 15.5 0Z" fill="#67D449"/>
</svg>
